<svg xmlns="http://www.w3.org/2000/svg" viewBox="0 0 320 300"><g stroke="#111" stroke-width="8" stroke-linecap="round" stroke-linejoin="round"><path fill="#6057ff" d="M102 205c-30 14-39 52-16 63 19 9 43-11 58-33"/><path fill="#ff78b7" d="M157 215c-18 28-13 63 10 66 19 2 29-25 28-51"/><path fill="#d8ff36" d="M208 213c8 26 31 43 48 31 14-10 2-37-20-52"/><path fill="#f4f0df" d="M79 93c2-53 70-74 119-44 45 28 45 96 6 123-44 30-129-1-125-79Z"/><path fill="#6057ff" d="M89 87c9-38 51-55 90-39-17 8-27 21-30 38-5 35 17 60 45 72-43 19-105-4-105-71Z"/></g><ellipse cx="145" cy="92" rx="23" ry="31" fill="#fff" stroke="#111" stroke-width="8"/><circle cx="153" cy="99" r="10"/><path d="M135 140q24 18 49 0" fill="none" stroke="#111" stroke-width="7" stroke-linecap="round"/><path d="M65 230 27 260M242 221l40 28" stroke="#111" stroke-width="8" stroke-linecap="round"/><path d="M46 269h46M255 263h44" stroke="#ff694f" stroke-width="13" stroke-linecap="round"/></svg>
